<svg xmlns="http://www.w3.org/2000/svg" viewBox="0 0 126 168" fill="black">
  <!-- S shape with roof/8 -->
  <path d="M63 0C38.7 0 19 15.9 19 38.5c0 15.6 9.4 27.3 24.2 33.7L22.5 91C8.7 97.8 0 112 0 129.5 0 152.1 19.7 168 63 168s63-15.9 63-38.5c0-15.6-9.4-27.3-24.2-33.7l20.7-18.8C136.3 70.2 126 56 126 38.5 126 15.9 106.3 0 63 0zM44 38.5C44 28.3 51.5 21 63 21s19 7.3 19 17.5c0 8.9-5.8 15.2-14.3 18.2L63 60l-4.7-3.3C49.8 53.7 44 47.4 44 38.5zM63 147c-11.5 0-19-7.3-19-17.5 0-8.9 5.8-15.2 14.3-18.2L63 108l4.7 3.3c8.5 3 14.3 9.3 14.3 18.2C82 139.7 74.5 147 63 147z"/>
  <!-- Roof element on top right -->
  <path d="M75 8c0 0 15 0 25 0c-3-2-8-5-13-6L75 8z" fill="black"/>
  <path d="M80 2c5 1 10 4 13 6l-8 7c-2-5-5-10-5-13z" fill="black"/>
</svg>
